<?xml version="1.0" encoding="UTF-8"?>
<svg id="Layer_1" xmlns="http://www.w3.org/2000/svg" version="1.1" viewBox="0 0 556.4 200">
  <!-- Generator: Adobe Illustrator 29.0.0, SVG Export Plug-In . SVG Version: 2.1.0 Build 186)  -->
  <g id="Layer_1-2">
    <g>
      <path d="M401.61,24h-21.96c-6.44,0-11.92,1.34-16.43,3.97s-7.79,6.34-9.77,11.06c-1.29,3.01-1.61,5.8-1.07,8.21.64,2.58,2.26,4.46,4.83,5.58,2.36,1.02,6.34,1.56,11.87,1.56h19.7l1.99-4.83h-11.11c-5.37,0-8.91-.7-10.68-2.04-1.93-1.5-1.72-4.94-.21-8.59,2.63-6.34,8.16-10.26,15.84-10.26h8.59l-1.99,4.78h6.55l3.92-9.4-.05-.05ZM324.89,42.26l13.26-12.89,2.74,12.89h-16ZM212.13,42.31l12.94-12.35,2.31,12.35h-15.25ZM337.02,24h-8.11l-31.09,29.1,12.19-29.05h-13.32l-16.11,12.62-8.27,6.82h-.38l3.92-9.93-4.78-9.5h-13.37l-12.19,29.1-6.98-29.1h-14.66l-32.38,30.34h8.11l8.27-7.95h20.4l1.61,7.95h21.69l7.84-18.74c.38-.97.75-2.04,1.13-3.22,0,.97.32,2.04.81,3.11l6.87,15.62h1.18l19.7-15.57c.75-.59,1.88-1.66,3.33-3.17-.75,1.4-1.29,2.47-1.61,3.22l-7.84,18.74h29.42l8.16-8h21.21l1.72,8h7.46l-7.3-30.39h-6.66ZM200.86,39.03c1.99-4.72,1.83-8.43-.54-11.06-2.31-2.63-6.71-3.92-13.15-3.92h-21.8l-1.99,4.72h14.98c7.62,0,9.88,3.81,7.25,10.15-1.5,3.65-2.9,7.03-6.07,8.48-2.9,1.4-5.91,1.77-11.28,1.77h-6.93l5.21-12.3h-6.55l-7.36,17.5h19.76c5.53,0,9.88-.54,13.1-1.56,3.54-1.13,6.71-3.01,9.5-5.58,2.58-2.47,4.51-5.21,5.8-8.21"/>
      <g>
        <path d="M24,100.4h13.64v73.5h-13.64s0-73.5,0-73.5Z"/>
        <path d="M62.87,164.99v-23.09h.43c5.15,11.44,23.41,32.05,39.62,32.05,7.89,0,13.42-4.4,13.42-11.11,0-25.61-51.97-25.13-51.97-46.77,0-14.6,15.25-17.77,29.42-17.77,16.38,0,24.59,4.19,30.44,8.7v17.02h-.43c-9.13-14.39-19.54-23.62-33.5-23.62-6.5,0-15.03,3.06-15.03,8.91,0,16.27,51.87,17.88,51.87,44.4,0,15.46-11.44,22.28-29.64,22.28-15.62,0-29.64-6.6-34.68-11.01h.05Z"/>
        <path d="M164.94,100.4v64.91c0,3.49-1.18,4.83-2.52,5.48h35.92v3.17h-47.03v-73.5h13.64v-.05Z"/>
        <path d="M243.54,100.4h14.17l25.61,73.5h-13.64l-1.13-3.38c-5.26-15.25-15.84-25.5-33.4-25.5h-3.76l-10.09,28.89h-3.38s25.61-73.5,25.61-73.5ZM235.17,141.91c13.53,0,20.89,4.94,29.74,13.32-1.88-2.63-4.08-6.6-5.58-10.9l-13.05-37.58c-.54-1.45-.97-2.09-2.09-2.31.75.86.43,2.74-.11,4.3l-11.65,33.18s2.74,0,2.74,0Z"/>
        <path d="M319.03,100.4l35.06,66.68v-66.68h3.17v73.5h-13.74l-33.5-63.62c-1.07-1.88-1.88-2.63-2.74-2.95.75.75,1.18,1.88,1.18,3.28v63.36h-3.17v-72.7l-.43-.86s14.17,0,14.17,0Z"/>
        <path d="M383.52,100.4h34.36c18.47,0,27.7,13.64,27.7,35.49,0,23.52-10.09,38.01-28.46,38.01h-33.61v-73.5ZM397.15,109.05v61.74h13.85c14.17,0,19.87-16.27,19.87-35.17,0-16.91-4.83-32.05-19.33-32.05h-16.91c1.34.64,2.52,1.99,2.52,5.48Z"/>
        <path d="M468.13,164.99v-23.09h.43c5.15,11.44,23.41,32.05,39.62,32.05,7.89,0,13.42-4.4,13.42-11.11,0-25.61-51.97-25.13-51.97-46.77,0-14.6,15.25-17.77,29.42-17.77,16.38,0,24.59,4.19,30.44,8.7v17.02h-.43c-9.13-14.39-19.54-23.62-33.5-23.62-6.5,0-15.03,3.06-15.03,8.91,0,16.27,51.87,17.88,51.87,44.4,0,15.46-11.44,22.28-29.64,22.28-15.62,0-29.64-6.6-34.68-11.01h.05Z"/>
      </g>
    </g>
  </g>
</svg>